<svg width="28" height="28" viewBox="0 0 28 28" fill="none" xmlns="http://www.w3.org/2000/svg">
<g id="Group 2475">
<circle id="Ellipse 292" cx="14" cy="14" r="14" fill="#D6061C"/>
<g id="Group 2474">
<path id="Vector 14" d="M6.82487 13.9492L7.86073 20.1644C7.9411 20.6466 8.35829 21 8.84713 21H19.1529C19.6417 21 20.0589 20.6466 20.1393 20.1644L21.1751 13.9492C21.355 12.8703 19.9205 12.3273 19.3407 13.2548L18.848 14.0432C18.4563 14.6699 17.5437 14.6699 17.152 14.0432L14.848 10.3568C14.4563 9.73013 13.5437 9.73013 13.152 10.3568L10.848 14.0432C10.4563 14.6699 9.54367 14.6699 9.152 14.0432L8.65926 13.2548C8.07954 12.3273 6.64505 12.8703 6.82487 13.9492Z" fill="white"/>
<circle id="Ellipse 299" cx="14" cy="7" r="1" fill="white"/>
<circle id="Ellipse 300" cx="7" cy="11" r="1" fill="white"/>
<circle id="Ellipse 301" cx="21" cy="11" r="1" fill="white"/>
</g>
</g>
</svg>

